<?xml version="1.0" encoding="UTF-8"?>
<svg id="Layer_3_Image" data-name="Layer 3 Image" xmlns="http://www.w3.org/2000/svg" viewBox="0 0 38.93 38.93">
  <defs>
    <style>
      .cls-1 {
        fill: #fff;
        stroke-width: 0px;
      }
    </style>
  </defs>
  <path class="cls-1" d="M.06,19.49c0-2.64-.05-5.28.01-7.91.05-2.08.41-4.1,1.42-5.97C3.19,2.44,5.91.82,9.37.26,10.92.02,12.47,0,14.03,0c4.44,0,8.87-.03,13.31.05,2.53.05,4.98.56,7.1,2.09,2.47,1.78,3.75,4.25,4.21,7.21.29,1.83.27,3.67.27,5.5,0,4.16,0,8.31-.06,12.47-.03,2-.37,3.98-1.29,5.78-1.68,3.25-4.44,4.98-8.01,5.53-1.39.21-2.78.25-4.18.26-4.6.03-9.19.08-13.79-.05-1.87-.05-3.71-.34-5.44-1.15-3.47-1.63-5.31-4.44-5.86-8.15-.5-3.34-.2-6.7-.23-10.06ZM19.46,35.55s0-.03,0-.04c2.68,0,5.36.01,8.04,0,.52,0,1.03-.12,1.54-.18,3.26-.39,5.53-2.48,6.1-5.34.25-1.26.42-2.52.42-3.79.01-4.04.02-8.08.01-12.12,0-1.4-.05-2.79-.23-4.19-.41-3.2-2.24-5.31-5.35-6.1-1.17-.3-2.36-.41-3.56-.41-4.36,0-8.72,0-13.08-.01-1.2,0-2.39.08-3.58.24-3.07.41-5.17,2.24-5.95,5.23-.33,1.28-.45,2.59-.45,3.91-.01,4.08-.02,8.16-.02,12.24,0,1.36.04,2.71.24,4.06.45,3.03,2.1,5.36,5.35,6.11,1.21.28,2.44.41,3.68.41,2.28,0,4.56,0,6.84,0Z"/>
  <path class="cls-1" d="M29.45,19.41c.04,5.44-4.41,9.95-9.91,10.02-5.45.08-10.08-4.52-10.06-10,.02-5.46,4.51-9.95,9.97-9.96,5.45-.01,9.95,4.47,9.99,9.94ZM19.64,12.82c-3.55-.18-6.63,2.69-6.79,6.42-.15,3.54,2.58,6.68,6.37,6.83,3.58.14,6.71-2.59,6.87-6.47.15-3.56-2.73-6.59-6.45-6.77Z"/>
  <path class="cls-1" d="M32.17,9.02c-.01,1.24-1.06,2.25-2.31,2.23-1.16-.02-2.2-1.07-2.21-2.23,0-1.24,1.02-2.27,2.26-2.27,1.27,0,2.27,1,2.25,2.27Z"/>
</svg>