<?xml version="1.0" encoding="UTF-8"?>
<svg id="Layer_5_Image" data-name="Layer 5 Image" xmlns="http://www.w3.org/2000/svg" viewBox="0 0 38.95 39.02">
  <defs>
    <style>
      .cls-1 {
        fill: #060606;
        stroke-width: 0px;
      }
    </style>
  </defs>
  <path class="cls-1" d="M.03,19.55c0-2.68-.07-5.36.02-8.03.11-3.32,1-6.36,3.6-8.67C5.85.89,8.53.2,11.36.12c5.39-.16,10.79-.17,16.19,0,3.74.12,7.04,1.3,9.28,4.54,1.41,2.03,1.93,4.36,1.99,6.78.15,5.39.17,10.79,0,16.19-.12,3.78-1.32,7.11-4.64,9.35-2.02,1.37-4.31,1.86-6.68,1.93-5.39.15-10.79.17-16.19,0-3.74-.12-7.04-1.3-9.28-4.54C.6,32.29.11,29.92.04,27.47c-.07-2.64-.02-5.28-.02-7.91ZM19.43,35.61c3.23-.08,6.48.21,9.7-.23,3.06-.42,5.19-2.28,5.94-5.23.34-1.33.45-2.67.46-4.03.01-3.32.03-6.64.02-9.96,0-2.08.06-4.15-.24-6.22-.44-2.99-1.95-5.09-4.89-6-1.3-.4-2.66-.52-4.02-.52-4.36,0-8.72,0-13.08,0-1.2,0-2.39.08-3.58.24-3.07.41-5.17,2.24-5.94,5.23-.26,1.01-.42,2.03-.43,3.07-.03,3.48-.06,6.96-.05,10.44,0,2.24-.06,4.47.24,6.71.42,3.18,2.23,5.29,5.36,6.1,1.21.31,2.44.42,3.68.42,2.28,0,4.56,0,6.84,0Z"/>
  <path class="cls-1" d="M29.41,19.47c.04,5.44-4.41,9.95-9.9,10.03-5.45.08-10.08-4.51-10.06-9.99.01-5.46,4.51-9.95,9.97-9.97,5.45-.02,9.95,4.46,9.99,9.93ZM19.61,12.88c-3.55-.18-6.59,2.7-6.8,6.42-.2,3.55,2.64,6.58,6.38,6.83,3.58.23,6.71-2.72,6.87-6.47.15-3.56-2.73-6.59-6.45-6.77Z"/>
  <path class="cls-1" d="M32.14,9.08c-.01,1.24-1.06,2.25-2.31,2.24-1.16-.02-2.2-1.07-2.21-2.23,0-1.24,1.02-2.27,2.26-2.28,1.27,0,2.27,1,2.25,2.27Z"/>
</svg>