<?xml version="1.0" encoding="UTF-8"?>
<svg id="Layer_12_Image" data-name="Layer 12 Image" xmlns="http://www.w3.org/2000/svg" viewBox="0 0 333.3 81.13">
  <defs>
    <style>
      .cls-1 {
        fill: #000;
        stroke-width: 0px;
      }
    </style>
  </defs>
  <path class="cls-1" d="M0,81.13V0h333.3v81.13H0ZM330.98,2.35H2.34v76.44h328.64V2.35Z"/>
  <path class="cls-1" d="M137.84,74.97H5.93V5.76h131.91v69.21ZM55.26,29.23h-4.61c0,.27,0,.51,0,.75,0,4.17,0,8.35,0,12.52,0,1.13-.01,2.26.01,3.38.07,2.96,1.32,4.62,4.14,5.49.16.05.32.1.48.14,2.83.71,5.7.66,8.58.48,1.56-.1,3.09-.37,4.53-1.02,1.74-.79,2.72-2.12,3-4.01.1-.67.13-1.34.13-2.01,0-5.06,0-10.13,0-15.19,0-.18.07-.38-.06-.54h-4.54c0,.28,0,.51,0,.75,0,4.63,0,9.26,0,13.89,0,.86-.03,1.73-.12,2.59-.2,1.92-1.12,2.96-3,3.33-1.62.31-3.25.33-4.87.1-2.49-.35-3.33-1.27-3.58-3.78-.07-.67-.09-1.34-.09-2.01,0-4.94,0-9.88,0-14.87ZM91.18,50.97c.3.09.55.18.8.25,3.45.95,6.95,1.09,10.48.68,2.17-.26,4.27-.83,6.17-1.99.95-.58,1.79-1.29,2.36-2.27.93-1.59.71-3.23-.61-4.51-.52-.5-1.12-.89-1.76-1.23-1.8-.96-3.75-1.56-5.68-2.18-1.89-.6-3.81-1.13-5.6-2-.76-.37-1.49-.79-2.06-1.42-.98-1.08-.95-2.36.07-3.41.6-.62,1.34-1.01,2.14-1.27,2.67-.87,5.37-.82,8.08-.19,1.21.28,2.34.8,3.51,1.34v-2.64c-.07-.03-.12-.08-.19-.1-4.5-1.35-9.04-1.6-13.6-.35-1.7.47-3.27,1.25-4.46,2.62-1.54,1.79-1.38,3.93.4,5.47.82.71,1.78,1.21,2.77,1.64,2.33,1.01,4.79,1.63,7.19,2.45,1.49.51,3,1.01,4.28,1.97,1.73,1.29,1.75,3.18.05,4.52-.86.68-1.86,1.08-2.93,1.3-3.71.78-7.28.29-10.75-1.16-.21-.09-.39-.28-.67-.19v2.66ZM31.55,29.21v22.55h15.35v-1.91h-10.81v-20.64h-4.54ZM79.33,29.21v22.55h4.52v-22.55h-4.52Z"/>
  <path class="cls-1" d="M291.6,41.38c0-1.78.08-3.57.53-5.33.85-3.38,2.96-5.52,6.34-6.35,2.84-.7,5.7-.7,8.54.03,3.53.9,5.64,3.19,6.36,6.74.57,2.85.59,5.72,0,8.57-.76,3.63-2.95,5.94-6.55,6.85-2.77.69-5.56.68-8.33-.01-3.89-.98-5.95-3.6-6.59-7.46-.17-1-.21-2-.28-3.03ZM309.44,40.8c.04-1.42-.02-2.83-.29-4.22-.51-2.59-1.78-4.53-4.52-5.15-.75-.17-1.51-.21-2.28-.21-3.21.03-5.26,1.59-5.97,4.72-.7,3.07-.66,6.19-.1,9.28.46,2.52,1.83,4.34,4.48,4.94.92.21,1.85.26,2.79.17,2.93-.27,4.74-1.83,5.46-4.67.4-1.59.48-3.22.44-4.85Z"/>
  <path class="cls-1" d="M274.2,41.05v11h-4.15v-22.51c.2-.13.42-.06.63-.06,2.76,0,5.52-.05,8.27.13,1.56.1,3.1.29,4.57.86,2.24.86,3.34,2.43,3.34,4.76,0,2.47-1.07,4.04-3.33,4.93-1.43.56-2.93.7-4.43.81-.21.01-.41.03-.74.05,3.34,3.71,6.61,7.33,9.94,11.02h-4.4c-3.16-3.66-6.34-7.36-9.53-11.06-.05.02-.11.05-.16.07ZM274.24,31.37v7.89c.9,0,1.76,0,2.62,0,.43,0,.86-.01,1.29-.06.74-.08,1.47-.15,2.19-.37,1.43-.44,2.1-1.25,2.18-2.75.02-.41.02-.81,0-1.22-.04-1.7-.8-2.67-2.44-3.09-1.9-.48-3.84-.4-5.84-.41Z"/>
  <path class="cls-1" d="M223.81,29.5h4.09c.16.24.08.51.08.76,0,4.94,0,9.89,0,14.83,0,.77.02,1.53.15,2.29.25,1.42,1.04,2.34,2.45,2.68,1.66.4,3.33.42,4.99.07,1.92-.41,2.71-1.45,2.88-3.66.04-.55.03-1.1.03-1.65,0-4.85,0-9.69,0-14.54v-.75h4.12c.14.11.07.29.07.45,0,5.18,0,10.37,0,15.55,0,.72-.07,1.44-.2,2.15-.39,2.1-1.69,3.38-3.68,4-2.37.74-4.81.79-7.26.65-1.08-.06-2.15-.17-3.2-.45-3.06-.8-4.45-2.32-4.5-5.47-.1-5.61-.03-11.22-.03-16.9Z"/>
  <path class="cls-1" d="M218.01,33.45c-1.3.25-2.6.51-3.9.77-.05-.03-.11-.05-.12-.08-1.02-2.55-3.39-3.17-5.97-2.85-3.27.4-4.92,2-5.42,5.44-.46,3.15-.39,6.32.4,9.43.45,1.77,1.34,3.25,3.22,3.83,1.78.55,3.6.52,5.39.03,1.47-.4,2.04-1.57,2.25-2.96.24-1.64.17-3.29.17-5.01h-6.08v-1.87h10.29c-.08,2.44.22,4.88-.32,7.29-.5,2.22-2.02,3.53-4.12,4.2-2.2.7-4.47.81-6.75.66-1.08-.07-2.14-.22-3.19-.51-2.79-.78-4.57-2.57-5.19-5.39-.77-3.48-.87-7-.14-10.49.65-3.08,2.51-5.19,5.58-6.06,3.42-.98,6.86-.97,10.25.2,1.49.52,2.7,1.44,3.51,2.83.09.16.24.3.19.56Z"/>
  <path class="cls-1" d="M157.64,29.47c3.85.06,7.66-.17,11.45.43,1.07.17,2.1.46,3.05,1,1.34.76,2.11,1.89,2.36,3.42.14.87.11,1.73-.07,2.57-.31,1.49-1.22,2.51-2.59,3.14-1.66.76-3.44.98-5.23,1.12-1.57.12-3.15.16-4.79.14v10.76h-4.16v-22.58ZM161.84,31.37v8.01c1.61.04,3.17.03,4.72-.14,2.43-.28,3.36-1.07,3.66-3.11.04-.31.05-.62.05-.93,0-1.94-.82-2.97-2.71-3.41-1.86-.44-3.75-.42-5.71-.42Z"/>
  <path class="cls-1" d="M179.08,29.51h14.14v1.86h-9.95v8.01h9.63c.11.65.04,1.24.06,1.89h-9.69v8.9h9.96v1.88h-14.14v-22.55Z"/>
  <path class="cls-1" d="M263.6,39.36v1.89h-9.65v8.93h9.94v1.87h-14.13v-22.52h14.12v1.82h-9.94v8.02h9.65Z"/>
</svg>