<?xml version="1.0" encoding="UTF-8"?>
<svg id="Layer_12_Image" data-name="Layer 12 Image" xmlns="http://www.w3.org/2000/svg" viewBox="0 0 189.14 187.72">
  <defs>
    <style>
      .cls-1 {
        fill: #000;
        stroke-width: 0px;
      }
    </style>
  </defs>
  <path class="cls-1" d="M189.14,187.72H0V0h189.14v187.72ZM5.32,5.3v177.06h178.49V5.3H5.32Z"/>
  <path class="cls-1" d="M94.63,12.82v162.06H12.81V12.82h81.82ZM74.55,119.78h-28.87v-55.12h-12.26v60.26h41.13v-5.15Z"/>
  <path class="cls-1" d="M127.85,96.13v28.79h-11.29v-60.24c.09-.12.25-.06.38-.06,5.97,0,11.94-.05,17.91.03,4.96.07,9.91.34,14.75,1.55,2.4.6,4.7,1.45,6.75,2.87,3.07,2.12,4.71,5.09,5.19,8.74.3,2.33.22,4.65-.33,6.93-1,4.14-3.74,6.74-7.54,8.35-2.75,1.17-5.64,1.77-8.58,2.18-5.69.79-11.42.82-17.25.84ZM127.88,90.95c3.3.06,6.54.04,9.76-.16,2.26-.14,4.52-.4,6.7-1.11,2.51-.81,4.33-2.31,5.05-4.93.65-2.36.85-4.76.46-7.19-.42-2.57-1.7-4.55-4.08-5.72-.77-.38-1.58-.67-2.41-.9-2.79-.78-5.65-.99-8.51-1.1-2.31-.09-4.63-.02-6.97-.02v21.12Z"/>
</svg>