<?xml version="1.0" encoding="UTF-8"?>
<svg id="Layer_4_Image" data-name="Layer 4 Image" xmlns="http://www.w3.org/2000/svg" viewBox="0 0 341.91 341.86">
  <defs>
    <style>
      .cls-1 {
        fill: #010101;
        stroke-width: 0px;
      }
    </style>
  </defs>
  <path class="cls-1" d="M0,341.86V0h341.91v341.86H0ZM323.91,323.91V18H18.04v305.9h305.86Z"/>
  <path class="cls-1" d="M93.9,302.16c1.43-4.15,2.81-8.14,4.18-12.11,2.36-.33,4.66-.61,6.94-.99,3.82-.63,7.65-1.24,11.27-2.71,4.26-1.74,7.44-4.73,9.85-8.59.11-.17.15-.37,0-.66H24.93c.91-2.72,1.75-5.3,2.65-7.85.91-2.58,1.68-5.21,2.92-7.87,2.56,0,5.08.06,7.59-.01,6.49-.19,12.93-.78,19.26-2.27,3.34-.79,6.64-1.8,9.59-3.64,2.19-1.37,4.23-2.91,5.24-5.42.52-1.3.8-2.67,1.19-4.01,1.33-4.56,2.95-9.02,4.46-13.52,2.79-8.32,5.58-16.63,8.38-24.95,2.8-8.31,5.61-16.62,8.41-24.93,1.28-3.81,2.4-7.69,3.87-11.43.9-2.29,1.79-4.58,2.56-6.91,1.85-5.65,3.7-11.29,5.55-16.94,1.68-5.12,3.36-10.23,5.05-15.35,1.52-4.62,3.24-9.19,4.54-13.87,2.75-9.87,6.21-19.52,9.22-29.31,2.07-6.74,4.3-13.44,6.48-20.15.4-1.22.76-2.43.91-3.71.44-3.79-1.01-6.44-4.47-8.01-2.15-.98-4.45-1.24-6.77-1.4-.87-.06-1.74-.13-2.6-.19.14-1.32,4.61-14.65,5.14-15.43,25.73,0,51.46,0,77.34,0-1.79,5.23-3.53,10.34-5.26,15.4-3.18.22-6.18.29-9.15.7-4.48.62-8.77,1.76-12.45,4.57-2.53,1.93-3.86,4.62-4.84,7.54-2.14,6.43-4.28,12.86-6.41,19.29-2.24,6.77-4.44,13.56-6.68,20.33-2.66,8.06-5.36,16.11-8.02,24.18-2.78,8.45-5.52,16.9-8.28,25.36-.96,2.96-1.68,6.02-2.96,8.84-.94,2.07-1.73,4.17-2.46,6.31-1.73,5.02-3.41,10.05-5.11,15.07-2.4,7.06-4.8,14.12-7.2,21.18-1.09,3.21-2.34,6.38-3.24,9.64-2.45,8.88-5.75,17.48-8.59,26.22-1.76,5.42-3.62,10.8-5.43,16.21-.07.22-.21.44-.08.78h27.23c.63-.43.66-1.26.9-1.95,2.13-6.1,4.2-12.22,6.31-18.33,2.38-6.9,4.78-13.79,7.16-20.69,2.65-7.69,5.3-15.38,7.95-23.08,3.09-8.98,6.16-17.95,9.26-26.93,2.64-7.65,5.32-15.29,7.96-22.95,3.32-9.61,6.61-19.24,9.92-28.86,1.86-5.39,3.77-10.76,5.57-16.17.79-2.38,1.54-4.78,1.89-7.29.71-5.06-1.09-8.94-5.48-11.54-2.94-1.74-6.14-2.86-9.43-3.7-1.19-.31-2.39-.6-3.76-.94,1.41-4.12,2.79-8.12,4.13-12.02.57-.29,1.02-.19,1.45-.19,30.52,0,61.04,0,91.56,0,6.57,0,13.11.54,19.55,1.88,6.02,1.25,11.77,3.22,16.92,6.69,6.2,4.18,10.19,9.91,12.05,17.14,1.55,6.01,1.63,12.09.94,18.22-.6,5.33-1.64,10.58-3.03,15.75-3.17,11.78-8.09,22.77-15.13,32.77-7.59,10.77-17.04,19.52-28.32,26.32-7.79,4.7-16.02,8.37-24.76,10.93-11.1,3.25-22.45,4.55-33.99,4.51-4.92-.01-9.84,0-14.76,0-.43,0-.88-.06-1.4.11-6.92,20.05-13.85,40.13-20.76,60.13.24.29.44.3.64.3,8.56,0,17.12-.08,25.68-.01,9.69.07,17.62-3.91,24.5-10.39,5.73-5.39,10.23-11.73,14.24-18.45,4.78-8,8.63-16.45,12.17-25.05.17-.41.32-.82.62-1.12h15.55c-9.95,23.52-19.85,46.92-29.8,70.42h-67.78c-.1,1.92.26,3.59,1,5.21,1.06,2.3,3.02,3.56,5.22,4.51,3.32,1.44,6.84,2.15,10.38,2.77.81.14,1.63.29,2.56.46-1.44,4.15-2.83,8.17-4.21,12.18h-92.03ZM200.94,186.82c.45.31.77.23,1.09.23,2.64,0,5.28.03,7.92-.02,5.47-.1,10.83-.97,15.97-2.84,7.79-2.84,14.41-7.49,20.03-13.55,5.04-5.44,8.95-11.65,12.18-18.29,4.04-8.32,6.93-17.06,9.03-26.06,1.28-5.49,2.47-10.99,2.95-16.62.43-5,.41-9.98-1.01-14.87-1.59-5.5-4.85-9.53-10.27-11.68-3.77-1.5-7.7-2.07-11.72-2.13-2.92-.04-5.84-.01-8.76,0-.31,0-.64-.09-1.02.2-12.11,35.15-24.25,70.38-36.4,105.63Z"/>
</svg>